<svg width="55" height="47" viewBox="0 0 55 47" fill="none" xmlns="http://www.w3.org/2000/svg">
<path d="M27.5 46L26.9381 46.8272C27.2773 47.0576 27.7227 47.0576 28.0619 46.8272L27.5 46ZM1.56188 27.1728C1.10502 26.8625 0.483099 26.9813 0.172781 27.4381C-0.137537 27.895 -0.0187439 28.5169 0.438116 28.8272L1.56188 27.1728ZM54.5619 28.8272C55.0187 28.5169 55.1375 27.895 54.8272 27.4381C54.5169 26.9813 53.895 26.8625 53.4381 27.1728L54.5619 28.8272ZM28.0619 45.1728L1.56188 27.1728L0.438116 28.8272L26.9381 46.8272L28.0619 45.1728ZM53.4381 27.1728L26.9381 45.1728L28.0619 46.8272L54.5619 28.8272L53.4381 27.1728Z" fill="white"/>
<path d="M27.5 19L26.9381 19.8272C27.2773 20.0576 27.7227 20.0576 28.0619 19.8272L27.5 19ZM1.56188 0.172782C1.10502 -0.137538 0.483099 -0.0187425 0.172781 0.438117C-0.137537 0.894975 -0.0187439 1.5169 0.438116 1.82722L1.56188 0.172782ZM54.5619 1.82722C55.0187 1.5169 55.1375 0.89498 54.8272 0.438122C54.5169 -0.0187377 53.895 -0.137533 53.4381 0.172787L54.5619 1.82722ZM28.0619 18.1728L1.56188 0.172782L0.438116 1.82722L26.9381 19.8272L28.0619 18.1728ZM53.4381 0.172787L26.9381 18.1728L28.0619 19.8272L54.5619 1.82722L53.4381 0.172787Z" fill="white"/>
</svg>
